<svg width="85" height="212" viewBox="0 0 85 212" fill="none" xmlns="http://www.w3.org/2000/svg">
<circle cx="34.8519" cy="145.456" r="2.17098" transform="rotate(-90 34.8519 145.456)" fill="#4B0673"/>
<circle cx="34.8519" cy="65.8532" r="2.17098" transform="rotate(-90 34.8519 65.8532)" fill="#4B0673"/>
<circle cx="34.8517" cy="209.138" r="2.17098" transform="rotate(-90 34.8517 209.138)" fill="#4B0673"/>
<circle cx="34.8519" cy="129.536" r="2.17098" transform="rotate(-90 34.8519 129.536)" fill="#4B0673"/>
<circle cx="34.8519" cy="49.9325" r="2.17098" transform="rotate(-90 34.8519 49.9325)" fill="#4B0673"/>
<circle cx="34.8519" cy="193.217" r="2.17098" transform="rotate(-90 34.8519 193.217)" fill="#4B0673"/>
<circle cx="34.8519" cy="113.615" r="2.17098" transform="rotate(-90 34.8519 113.615)" fill="#4B0673"/>
<circle cx="34.8519" cy="34.0119" r="2.17098" transform="rotate(-90 34.8519 34.0119)" fill="#4B0673"/>
<circle cx="34.8519" cy="177.297" r="2.17098" transform="rotate(-90 34.8519 177.297)" fill="#4B0673"/>
<circle cx="34.8519" cy="97.6943" r="2.17098" transform="rotate(-90 34.8519 97.6943)" fill="#4B0673"/>
<circle cx="34.8519" cy="18.0915" r="2.17098" transform="rotate(-90 34.8519 18.0915)" fill="#4B0673"/>
<circle cx="34.8519" cy="161.376" r="2.17098" transform="rotate(-90 34.8519 161.376)" fill="#4B0673"/>
<circle cx="34.8519" cy="81.7736" r="2.17098" transform="rotate(-90 34.8519 81.7736)" fill="#4B0673"/>
<circle cx="34.8519" cy="2.17081" r="2.17098" transform="rotate(-90 34.8519 2.17081)" fill="#4B0673"/>
<circle cx="66.6932" cy="145.456" r="2.17098" transform="rotate(-90 66.6932 145.456)" fill="#4B0673"/>
<circle cx="66.6932" cy="65.8532" r="2.17098" transform="rotate(-90 66.6932 65.8532)" fill="#4B0673"/>
<circle cx="66.6934" cy="209.138" r="2.17098" transform="rotate(-90 66.6934 209.138)" fill="#4B0673"/>
<circle cx="66.6932" cy="129.536" r="2.17098" transform="rotate(-90 66.6932 129.536)" fill="#4B0673"/>
<circle cx="66.6932" cy="49.9325" r="2.17098" transform="rotate(-90 66.6932 49.9325)" fill="#4B0673"/>
<circle cx="66.6932" cy="193.217" r="2.17098" transform="rotate(-90 66.6932 193.217)" fill="#4B0673"/>
<circle cx="66.6932" cy="113.615" r="2.17098" transform="rotate(-90 66.6932 113.615)" fill="#4B0673"/>
<circle cx="66.6932" cy="34.0119" r="2.17098" transform="rotate(-90 66.6932 34.0119)" fill="#4B0673"/>
<circle cx="66.6932" cy="177.297" r="2.17098" transform="rotate(-90 66.6932 177.297)" fill="#4B0673"/>
<circle cx="66.6932" cy="97.6943" r="2.17098" transform="rotate(-90 66.6932 97.6943)" fill="#4B0673"/>
<circle cx="66.6932" cy="18.0915" r="2.17098" transform="rotate(-90 66.6932 18.0915)" fill="#4B0673"/>
<circle cx="66.6932" cy="161.376" r="2.17098" transform="rotate(-90 66.6932 161.376)" fill="#4B0673"/>
<circle cx="66.6932" cy="81.7736" r="2.17098" transform="rotate(-90 66.6932 81.7736)" fill="#4B0673"/>
<circle cx="66.6932" cy="2.17081" r="2.17098" transform="rotate(-90 66.6932 2.17081)" fill="#4B0673"/>
<circle cx="50.7731" cy="145.456" r="2.17098" transform="rotate(-90 50.7731 145.456)" fill="#4B0673"/>
<circle cx="50.7731" cy="65.8532" r="2.17098" transform="rotate(-90 50.7731 65.8532)" fill="#4B0673"/>
<circle cx="50.7735" cy="209.138" r="2.17098" transform="rotate(-90 50.7735 209.138)" fill="#4B0673"/>
<circle cx="50.7731" cy="129.536" r="2.17098" transform="rotate(-90 50.7731 129.536)" fill="#4B0673"/>
<circle cx="50.7731" cy="49.9325" r="2.17098" transform="rotate(-90 50.7731 49.9325)" fill="#4B0673"/>
<circle cx="50.7731" cy="193.217" r="2.17098" transform="rotate(-90 50.7731 193.217)" fill="#4B0673"/>
<circle cx="50.7731" cy="113.615" r="2.17098" transform="rotate(-90 50.7731 113.615)" fill="#4B0673"/>
<circle cx="50.7731" cy="34.0119" r="2.17098" transform="rotate(-90 50.7731 34.0119)" fill="#4B0673"/>
<circle cx="50.7731" cy="177.297" r="2.17098" transform="rotate(-90 50.7731 177.297)" fill="#4B0673"/>
<circle cx="50.7731" cy="97.6943" r="2.17098" transform="rotate(-90 50.7731 97.6943)" fill="#4B0673"/>
<circle cx="50.7731" cy="18.0915" r="2.17098" transform="rotate(-90 50.7731 18.0915)" fill="#4B0673"/>
<circle cx="50.7731" cy="161.376" r="2.17098" transform="rotate(-90 50.7731 161.376)" fill="#4B0673"/>
<circle cx="50.7731" cy="81.7738" r="2.17098" transform="rotate(-90 50.7731 81.7738)" fill="#4B0673"/>
<circle cx="50.7731" cy="2.17081" r="2.17098" transform="rotate(-90 50.7731 2.17081)" fill="#4B0673"/>
<circle cx="82.6144" cy="145.456" r="2.17098" transform="rotate(-90 82.6144 145.456)" fill="#4B0673"/>
<circle cx="82.6144" cy="65.8532" r="2.17098" transform="rotate(-90 82.6144 65.8532)" fill="#4B0673"/>
<circle cx="82.6143" cy="209.138" r="2.17098" transform="rotate(-90 82.6143 209.138)" fill="#4B0673"/>
<circle cx="82.6144" cy="129.536" r="2.17098" transform="rotate(-90 82.6144 129.536)" fill="#4B0673"/>
<circle cx="82.6144" cy="49.9325" r="2.17098" transform="rotate(-90 82.6144 49.9325)" fill="#4B0673"/>
<circle cx="82.6144" cy="193.217" r="2.17098" transform="rotate(-90 82.6144 193.217)" fill="#4B0673"/>
<circle cx="82.6144" cy="113.615" r="2.17098" transform="rotate(-90 82.6144 113.615)" fill="#4B0673"/>
<circle cx="82.6144" cy="34.0119" r="2.17098" transform="rotate(-90 82.6144 34.0119)" fill="#4B0673"/>
<circle cx="82.6144" cy="177.297" r="2.17098" transform="rotate(-90 82.6144 177.297)" fill="#4B0673"/>
<circle cx="82.6144" cy="97.6943" r="2.17098" transform="rotate(-90 82.6144 97.6943)" fill="#4B0673"/>
<circle cx="82.6144" cy="18.0915" r="2.17098" transform="rotate(-90 82.6144 18.0915)" fill="#4B0673"/>
<circle cx="82.6144" cy="161.376" r="2.17098" transform="rotate(-90 82.6144 161.376)" fill="#4B0673"/>
<circle cx="82.6144" cy="81.7738" r="2.17098" transform="rotate(-90 82.6144 81.7738)" fill="#4B0673"/>
<circle cx="82.6144" cy="2.17081" r="2.17098" transform="rotate(-90 82.6144 2.17081)" fill="#4B0673"/>
<circle cx="3.01065" cy="145.456" r="2.17098" transform="rotate(-90 3.01065 145.456)" fill="#4B0673"/>
<circle cx="3.01065" cy="65.8532" r="2.17098" transform="rotate(-90 3.01065 65.8532)" fill="#4B0673"/>
<circle cx="3.0118" cy="209.138" r="2.17098" transform="rotate(-90 3.0118 209.138)" fill="#4B0673"/>
<circle cx="3.01065" cy="129.536" r="2.17098" transform="rotate(-90 3.01065 129.536)" fill="#4B0673"/>
<circle cx="3.01065" cy="49.9325" r="2.17098" transform="rotate(-90 3.01065 49.9325)" fill="#4B0673"/>
<circle cx="3.01065" cy="193.217" r="2.17098" transform="rotate(-90 3.01065 193.217)" fill="#4B0673"/>
<circle cx="3.01065" cy="113.615" r="2.17098" transform="rotate(-90 3.01065 113.615)" fill="#4B0673"/>
<circle cx="3.01065" cy="34.0119" r="2.17098" transform="rotate(-90 3.01065 34.0119)" fill="#4B0673"/>
<circle cx="3.01065" cy="177.297" r="2.17098" transform="rotate(-90 3.01065 177.297)" fill="#4B0673"/>
<circle cx="3.01065" cy="97.6943" r="2.17098" transform="rotate(-90 3.01065 97.6943)" fill="#4B0673"/>
<circle cx="3.01065" cy="18.0915" r="2.17098" transform="rotate(-90 3.01065 18.0915)" fill="#4B0673"/>
<circle cx="3.01065" cy="161.376" r="2.17098" transform="rotate(-90 3.01065 161.376)" fill="#4B0673"/>
<circle cx="3.01065" cy="81.7738" r="2.17098" transform="rotate(-90 3.01065 81.7738)" fill="#4B0673"/>
<circle cx="3.01065" cy="2.17081" r="2.17098" transform="rotate(-90 3.01065 2.17081)" fill="#4B0673"/>
<circle cx="18.9318" cy="145.456" r="2.17098" transform="rotate(-90 18.9318 145.456)" fill="#4B0673"/>
<circle cx="18.9318" cy="65.8532" r="2.17098" transform="rotate(-90 18.9318 65.8532)" fill="#4B0673"/>
<circle cx="18.9317" cy="209.138" r="2.17098" transform="rotate(-90 18.9317 209.138)" fill="#4B0673"/>
<circle cx="18.9318" cy="129.536" r="2.17098" transform="rotate(-90 18.9318 129.536)" fill="#4B0673"/>
<circle cx="18.9318" cy="49.9325" r="2.17098" transform="rotate(-90 18.9318 49.9325)" fill="#4B0673"/>
<circle cx="18.9318" cy="193.217" r="2.17098" transform="rotate(-90 18.9318 193.217)" fill="#4B0673"/>
<circle cx="18.9318" cy="113.615" r="2.17098" transform="rotate(-90 18.9318 113.615)" fill="#4B0673"/>
<circle cx="18.9318" cy="34.0119" r="2.17098" transform="rotate(-90 18.9318 34.0119)" fill="#4B0673"/>
<circle cx="18.9318" cy="177.297" r="2.17098" transform="rotate(-90 18.9318 177.297)" fill="#4B0673"/>
<circle cx="18.9318" cy="97.6943" r="2.17098" transform="rotate(-90 18.9318 97.6943)" fill="#4B0673"/>
<circle cx="18.9318" cy="18.0915" r="2.17098" transform="rotate(-90 18.9318 18.0915)" fill="#4B0673"/>
<circle cx="18.9318" cy="161.376" r="2.17098" transform="rotate(-90 18.9318 161.376)" fill="#4B0673"/>
<circle cx="18.9318" cy="81.7738" r="2.17098" transform="rotate(-90 18.9318 81.7738)" fill="#4B0673"/>
<circle cx="18.9318" cy="2.17081" r="2.17098" transform="rotate(-90 18.9318 2.17081)" fill="#4B0673"/>
</svg>
