<svg width="133" height="117" viewBox="0 0 133 117" fill="none" xmlns="http://www.w3.org/2000/svg">
<g clip-path="url(#clip0_6_695)">
<path opacity="0.18" d="M73.6737 1.42281C71.9989 1.72327 70.3469 2.13866 68.7292 2.66603C58.0049 6.16431 37.6309 11.5843 29.6828 19.5652C20.4682 28.8403 23.2953 41.0451 14.0415 50.2653C6.37573 57.8933 -0.0195911 65.3605 1.44401e-05 76.9338C0.0313833 97.3273 17.645 104.414 34.1136 109.552C53.6251 115.631 74.3756 118.427 94.7222 115.65C103.349 114.474 112.057 112.211 119.096 107.093C129.624 99.4451 134.686 85.405 132.498 72.7061C131.388 66.2625 129.447 60.4386 128.918 53.8185C128.228 45.1905 129.683 36.335 127.15 27.8991C122.738 13.204 107.301 4.36811 92.197 1.69342C86.0879 0.603147 79.7592 0.316853 73.6737 1.42281Z" fill="#4B0673"/>
<path d="M122.142 16.3256V92.8797C122.142 94.1633 121.633 95.3942 120.725 96.3018C119.818 97.2094 118.587 97.7193 117.304 97.7193H15.6962C14.4129 97.7193 13.1822 97.2094 12.2748 96.3018C11.3673 95.3942 10.8575 94.1633 10.8575 92.8797V17.757C10.8575 16.4735 11.3673 15.2425 12.2748 14.3349C13.1822 13.4274 14.4129 12.9175 15.6962 12.9175H118.735C119.639 12.9175 120.505 13.2765 121.144 13.9157C121.783 14.5548 122.142 15.4217 122.142 16.3256Z" fill="white"/>
<path opacity="0.33" d="M77.3399 29.5266H28.7692V59.3835H77.3399V29.5266Z" fill="#D7D9E1"/>
<path opacity="0.33" d="M77.3399 62.2463H28.7692V92.1033H77.3399V62.2463Z" fill="#D7D9E1"/>
<path d="M122.142 16.4003V16.5258H10.8575V16.4003C10.8575 15.1168 11.3673 13.8859 12.2748 12.9783C13.1822 12.0707 14.4129 11.5608 15.6962 11.5608H117.304C117.939 11.5603 118.569 11.6851 119.156 11.9281C119.743 12.1712 120.277 12.5276 120.726 12.9771C121.176 13.4266 121.532 13.9603 121.775 14.5477C122.018 15.1351 122.143 15.7647 122.142 16.4003Z" fill="#4B0673"/>
<path d="M25.8715 16.5256V97.7076H15.6962C14.4129 97.7076 13.1822 97.1977 12.2748 96.2901C11.3673 95.3825 10.8575 94.1516 10.8575 92.8681V16.5256H25.8715Z" fill="#D7D9E1"/>
<path d="M23.5541 36.9702H15.7158V37.7467H23.5541V36.9702Z" fill="white"/>
<path d="M23.558 34.6758H13.8964V35.6602H23.558V34.6758Z" fill="white"/>
<path d="M23.5541 46.1472H15.7158V46.9237H23.5541V46.1472Z" fill="white"/>
<path d="M23.558 43.8491H13.8964V44.8335H23.558V43.8491Z" fill="white"/>
<path d="M23.5541 55.3206H15.7158V56.0971H23.5541V55.3206Z" fill="white"/>
<path d="M23.558 53.0261H13.8964V54.0105H23.558V53.0261Z" fill="white"/>
<path d="M23.5541 64.4934H15.7158V65.2699H23.5541V64.4934Z" fill="white"/>
<path d="M23.558 62.1995H13.8964V63.1838H23.558V62.1995Z" fill="white"/>
<path d="M128.714 25.5733V41.7823C128.714 42.9072 128.282 43.9891 127.505 44.8034C126.729 45.6176 125.67 46.1017 124.546 46.1551C124.477 46.1591 124.407 46.1591 124.338 46.1551H97.5375L95.2319 51.5123L92.8008 46.1551H55.8875C54.9391 46.1544 54.0167 45.8458 53.2587 45.2758C52.5007 44.7058 51.9481 43.9051 51.6841 42.9941C51.5746 42.5996 51.5218 42.1916 51.5272 41.7823V25.5733C51.5272 24.4149 51.986 23.3036 52.8031 22.4826C53.6203 21.6616 54.7293 21.1978 55.8875 21.1926H124.338C124.913 21.1926 125.483 21.306 126.014 21.5262C126.545 21.7464 127.027 22.0691 127.434 22.4759C127.84 22.8828 128.163 23.3657 128.382 23.8972C128.602 24.4287 128.715 24.9982 128.714 25.5733Z" fill="#4B0673"/>
<path opacity="0.33" d="M128.714 27.2126V41.7823C128.714 42.9072 128.282 43.9891 127.505 44.8034C126.729 45.6176 125.67 46.1017 124.546 46.1551C124.477 46.1591 124.407 46.1591 124.338 46.1551H97.5375L95.2319 51.5123L92.8008 46.1551H55.8875C54.9391 46.1544 54.0167 45.8459 53.2587 45.2758C52.5007 44.7058 51.9481 43.9051 51.6841 42.9941C51.5746 42.5996 51.5218 42.1916 51.5272 41.7823V27.2126H128.714Z" fill="white"/>
<path d="M16.0373 15.1411C16.648 15.1411 17.1431 14.646 17.1431 14.0352C17.1431 13.4244 16.648 12.9292 16.0373 12.9292C15.4266 12.9292 14.9315 13.4244 14.9315 14.0352C14.9315 14.646 15.4266 15.1411 16.0373 15.1411Z" fill="white"/>
<path d="M19.829 15.1411C20.4397 15.1411 20.9348 14.646 20.9348 14.0352C20.9348 13.4244 20.4397 12.9292 19.829 12.9292C19.2184 12.9292 18.7233 13.4244 18.7233 14.0352C18.7233 14.646 19.2184 15.1411 19.829 15.1411Z" fill="white"/>
<path d="M23.6207 15.1411C24.2314 15.1411 24.7265 14.646 24.7265 14.0352C24.7265 13.4244 24.2314 12.9292 23.6207 12.9292C23.01 12.9292 22.515 13.4244 22.515 14.0352C22.515 14.646 23.01 15.1411 23.6207 15.1411Z" fill="white"/>
<path d="M104.121 92.919C104.121 97.1232 102.451 101.155 99.479 104.128C96.5067 107.101 92.4754 108.771 88.2719 108.771C84.0685 108.771 80.0372 107.101 77.0649 104.128C74.0926 101.155 72.4228 97.1232 72.4228 92.919C72.4228 92.5112 72.4385 92.1072 72.4699 91.7072C72.7853 87.6216 74.6703 83.817 77.7295 81.0912C80.7886 78.3655 84.7842 76.9305 88.8782 77.0873C92.9722 77.244 96.8464 78.9803 99.6883 81.932C102.53 84.8836 104.119 88.8213 104.121 92.919Z" fill="#4B0673"/>
<path opacity="0.14" d="M81.61 100.12C81.0845 102.41 81.7276 104.853 81.2571 107.136C77.5958 105.325 74.7721 102.173 73.3717 98.3353C73.2963 97.5514 73.316 96.7613 73.4305 95.9822C73.5364 95.139 73.6933 94.2644 73.4541 93.4487C73.2266 92.8204 72.8938 92.2356 72.4699 91.7191C72.6458 89.4014 73.3301 87.1508 74.474 85.1275C75.618 83.1042 77.1935 81.3578 79.0887 80.0125C79.1082 80.1188 79.1082 80.2277 79.0887 80.334L78.426 83.3539C78.5594 84.2483 78.5594 85.1576 78.426 86.0521C78.3535 86.4983 78.1843 86.9232 77.9303 87.2972C77.6763 87.6711 77.3436 87.985 76.9556 88.2169C76.663 88.3378 76.3788 88.478 76.1047 88.6366C75.8415 88.8548 75.6219 89.1209 75.4578 89.4209C75.02 90.0322 74.6934 90.7159 74.4932 91.4407C74.3963 91.8034 74.3914 92.1845 74.479 92.5495C74.5667 92.9145 74.7441 93.2519 74.9951 93.531L79.4142 92.6721C79.8768 92.5819 80.4376 92.5192 80.7552 92.8682C81.1473 93.2839 80.8963 93.9467 80.9787 94.5076C81.0845 95.2213 81.7198 95.7351 82.0138 96.3979C82.5236 97.547 81.9001 98.8686 81.61 100.12Z" fill="#020202"/>
<path opacity="0.4" d="M75.744 84.7775C75.9489 85.2212 76.2751 85.5978 76.6851 85.8638C78.5384 87.2545 80.7763 88.0381 83.0922 88.1071C82.3432 88.2914 81.5512 88.4993 81.0179 89.0601C80.4846 89.6209 80.3709 90.6288 80.9905 91.1034C81.2085 91.2491 81.4563 91.3442 81.7159 91.3818C82.8961 91.6138 84.1174 91.5147 85.2449 91.0955C85.9271 90.8406 86.5976 90.4641 87.327 90.472C87.911 90.5203 88.4799 90.6829 89.0013 90.9504C89.7855 91.272 90.605 91.5622 91.4206 91.3975C92.2362 91.2328 92.989 90.4484 92.8047 89.6327C92.7616 89.4405 92.6793 89.2405 92.7734 89.064C92.8526 88.9582 92.9641 88.8811 93.091 88.8444L100.592 85.5069C101.067 85.2912 101.612 84.9892 101.663 84.4716C101.713 83.9539 101.188 83.5107 100.702 83.2597C98.1179 81.9106 95.1025 81.7381 92.1891 81.5969L87.0172 81.3419C84.5155 81.2204 81.9903 81.0988 79.4926 81.3929C78.626 81.4949 77.0968 81.5067 76.4341 82.1538C75.8577 82.7028 75.4774 84.0676 75.744 84.7775Z" fill="#020202"/>
<path opacity="0.14" d="M104.121 92.9192C104.124 95.3166 103.581 97.6834 102.535 99.8405C101.489 101.998 99.9666 103.889 98.0825 105.371C97.8648 105.226 97.6781 105.04 97.5336 104.822C97.0591 104.104 97.216 102.971 97.9806 102.567C97.7139 102.708 96.667 102.363 96.3533 102.316L94.7221 102.061C93.9379 101.939 92.5812 101.99 92.1225 101.206C92.0695 101.097 92.0079 100.992 91.9382 100.892C91.8409 100.795 91.7266 100.717 91.6009 100.661C91.1108 100.422 90.5344 100.151 90.4246 99.6176C90.3423 99.2255 90.5383 98.7784 90.3384 98.4411C90.2756 98.3313 90.1776 98.245 90.1148 98.1391C90.0458 97.9784 90.0196 97.8024 90.0389 97.6285C90.0581 97.4546 90.1221 97.2887 90.2246 97.1469C90.9108 95.9429 92.3381 95.3625 93.7027 95.1311C95.0672 94.8997 96.4827 94.9311 97.8159 94.5467C98.655 94.3036 99.451 93.8957 100.318 93.7624C100.796 93.6957 101.392 93.6486 101.568 93.1976C101.666 92.9427 101.568 92.6486 101.67 92.3897C101.71 92.2799 101.784 92.1858 101.823 92.076C101.854 91.9837 101.863 91.8859 101.851 91.7896C101.838 91.6933 101.805 91.6009 101.752 91.5193C101.699 91.4377 101.629 91.3689 101.546 91.318C101.464 91.2671 101.371 91.2353 101.274 91.2249C101.384 90.9269 101.478 90.5465 101.243 90.3347C101.161 90.2747 101.066 90.2352 100.966 90.2195C100.865 90.2038 100.763 90.2124 100.667 90.2445C100.098 90.3896 99.6863 90.868 99.2079 91.2053C97.6394 92.3309 95.4593 91.9309 94.134 90.6092C93.9193 90.4207 93.7663 90.172 93.6948 89.8954C93.675 89.6597 93.7288 89.4237 93.8489 89.2199C93.969 89.0162 94.1495 88.8548 94.3653 88.7581C94.7983 88.5712 95.2662 88.479 95.7377 88.4875L95.2084 85.0363C92.5734 85.7422 91.5029 83.2322 91.1265 81.1458C90.7501 79.0594 92.2322 78.3143 94.1418 78.177C97.0894 79.353 99.6162 81.3868 101.395 84.015C103.174 86.6433 104.124 89.7452 104.121 92.9192Z" fill="#020202"/>
<path d="M94.7376 57.3742L94.3701 57.4033C94.1413 57.4214 93.9704 57.6216 93.9885 57.8505L94.1807 60.2822C94.1988 60.5111 94.399 60.682 94.6278 60.6639L94.9953 60.6349C95.2241 60.6168 95.395 60.4166 95.3769 60.1877L95.1847 57.7559C95.1666 57.527 94.9664 57.3561 94.7376 57.3742Z" fill="#4B0673"/>
<path d="M92.1617 56.4029L92.3303 57.3402C92.3852 57.6422 92.6048 57.8422 92.84 57.803C93.7497 57.6461 95.9769 57.3363 97.5806 57.7442C98.4521 57.966 99.3043 58.2572 100.129 58.6148C100.455 58.7599 100.78 58.3952 100.725 57.9481L100.149 52.9595C100.094 52.5203 99.7098 52.3006 99.4314 52.5673C98.2825 53.6105 95.6201 55.6852 92.6361 55.6734C92.3068 55.6617 92.095 56.0225 92.1617 56.4029Z" fill="#4B0673"/>
<path d="M100.377 58.6419C101.206 58.5763 101.767 57.1176 101.63 55.3838C101.493 53.6499 100.71 52.2975 99.881 52.363C99.052 52.4286 98.491 53.8873 98.6281 55.6211C98.7651 57.355 99.5482 58.7074 100.377 58.6419Z" fill="#4B0673"/>
<path d="M100.377 58.6419C101.206 58.5763 101.767 57.1176 101.63 55.3838C101.493 53.6499 100.71 52.2975 99.881 52.363C99.052 52.4286 98.491 53.8873 98.6281 55.6211C98.7651 57.355 99.5482 58.7074 100.377 58.6419Z" fill="url(#paint0_linear_6_695)"/>
<path d="M82.4295 62.2268C80.5787 62.4896 76.1557 72.8864 77.4732 75.2669C78.7907 77.6475 86.0644 80.4241 86.0644 80.4241L85.6722 76.3258C85.6722 76.3258 80.6964 74.208 81.0924 72.8864C81.4884 71.5647 84.3508 66.631 84.3508 66.631L82.4295 62.2268Z" fill="#4B0673"/>
<path d="M94.2673 61.9446C94.2673 61.6857 95.9887 62.4113 96.0671 62.4544C97.0554 63.0003 97.9925 63.6343 98.8668 64.3487C99.651 64.9761 100.471 65.588 101.219 66.2821C101.898 66.9253 102.815 67.7175 102.651 68.7607C102.521 69.5451 101.67 70.0628 100.87 70.0667C100.069 70.0052 99.2966 69.7348 98.6315 69.2823C97.2356 68.4783 95.9142 67.6116 94.5575 66.7292L94.2673 61.9446Z" fill="#4B0673"/>
<path d="M83.5705 61.9249H93.7341C94.0897 61.9175 94.4432 61.9818 94.7736 62.1139C95.1039 62.246 95.4042 62.4433 95.6567 62.694C95.9091 62.9447 96.1086 63.2437 96.2431 63.5731C96.3776 63.9025 96.4444 64.2556 96.4396 64.6113C96.4396 64.6113 94.5026 72.5256 94.4791 75.1807C94.4791 76.6357 94.9378 80.9811 94.9378 80.9811H82.3903C82.3903 80.9811 82.9706 76.4396 82.9588 74.914C82.9353 72.3256 80.8846 64.6113 80.8846 64.6113C80.8798 64.2572 80.9461 63.9058 81.0794 63.5777C81.2127 63.2496 81.4103 62.9516 81.6607 62.7012C81.9111 62.4507 82.2091 62.253 82.5371 62.1197C82.8651 61.9864 83.2165 61.9201 83.5705 61.9249Z" fill="#4B0673"/>
<path d="M95.8985 57.4343C95.7258 57.1923 95.4934 56.9992 95.2241 56.8734C94.9681 56.798 94.6958 56.798 94.4399 56.8734C94.0927 56.9547 93.7677 57.1114 93.4878 57.3324C93.208 57.5533 92.9801 57.8331 92.8204 58.152C92.7529 58.283 92.7166 58.428 92.7146 58.5755C92.7274 58.7223 92.7659 58.8656 92.8283 58.9991C93.0714 59.6148 93.3929 60.305 94.0321 60.4854C94.3703 60.5281 94.7106 60.553 95.0515 60.56C95.2751 60.5953 95.4868 60.6815 95.7103 60.7207C96.2749 60.8227 97.4081 60.4384 97.4513 59.7285C97.4709 59.3795 97.0239 58.9128 96.8356 58.6422C96.5298 58.2226 96.2279 57.8225 95.8985 57.4343Z" fill="#F5FAFE"/>
<path d="M90.2168 63.4113C90.1748 63.7087 90.0206 63.9789 89.7858 64.1663C89.5511 64.3537 89.2535 64.4442 88.9542 64.4192C87.7073 64.3604 87.6171 63.4113 87.6171 63.4113V58.4619H90.2168V63.4113Z" fill="#F5FAFE"/>
<path d="M87.6015 60.9091C87.6015 60.9091 89.2287 63.4466 90.2011 62.2269V60.2424L87.6015 60.9091Z" fill="url(#paint1_linear_6_695)"/>
<path d="M86.5231 59.6464C87.174 61.6661 90.409 61.725 91.4951 60.1209C92.0758 59.1456 92.2584 57.984 92.0048 56.8776C91.8324 55.7886 91.4994 54.7313 91.0167 53.7401C90.6834 53.1165 90.3462 52.5636 89.5894 52.4694C88.7258 52.4134 87.8643 52.6067 87.1074 53.0263C86.3903 53.413 85.829 54.0359 85.5188 54.7893C85.2086 55.5428 85.1686 56.3804 85.4056 57.1599C85.5356 57.5501 85.6996 57.928 85.8958 58.2894C86.1396 58.7249 86.3493 59.1786 86.5231 59.6464Z" fill="#F5FAFE"/>
<path d="M97.1689 71.9099H80.1435V82.0635H97.1689V71.9099Z" fill="#4B0673"/>
<g opacity="0.1">
<path opacity="0.1" d="M97.1689 71.9099H80.1435V82.0635H97.1689V71.9099Z" fill="#020202"/>
</g>
<path d="M87.5151 87.4795C87.16 87.7594 86.763 87.9818 86.3388 88.1384C85.4252 88.5305 83.6215 89.2365 83.892 90.0208C84.2567 91.0797 85.5271 91.0013 86.3702 90.7503C87.6866 90.2989 88.9398 89.6808 90.0992 88.911L87.5151 87.4795Z" fill="#473F47"/>
<path d="M89.6992 84.7187C92.7891 82.4637 94.4045 80.7969 97.8747 78.6869C98.7021 78.1849 99.2667 78.0359 100.698 78.5967C101.917 79.0752 101.788 81.1734 101.121 82.0479C99.1256 84.6717 91.4323 88.2954 89.8757 88.8445C89.2091 89.0798 86.8368 87.0836 87.7975 86.1306C88.4 85.6191 89.0353 85.1474 89.6992 84.7187Z" fill="#473F47"/>
<path d="M88.2719 89.064C88.7515 89.6813 89.2986 90.243 89.9031 90.7386C90.9501 91.5504 91.6755 91.8171 92.5263 91.421C93.7576 90.8484 92.6244 89.6366 91.6676 88.6757C90.9376 87.913 90.1203 87.239 89.2326 86.6677L88.2719 89.064Z" fill="#473F47"/>
<path d="M88.4288 86.0991L89.7502 87.1933C90.0228 87.414 90.2561 87.6792 90.4403 87.9777C90.8677 88.762 89.3855 90.4131 88.4209 89.4523C87.4563 88.4914 86.5937 87.4639 86.5937 87.4639L88.4288 86.0991Z" fill="#F5FAFE"/>
<path d="M84.4998 87.8206C80.9081 86.0127 78.7044 85.3616 76.3949 82.1104C75.8068 81.279 75.5715 79.9103 75.7989 79.2318C76.0812 78.4004 77.2968 77.8984 78.7319 78.2396C79.9318 78.5298 88.0014 84.8518 89.264 86.044C89.8051 86.5578 88.1504 89.1266 86.7937 88.6834C86.0046 88.4655 85.2369 88.1767 84.4998 87.8206Z" fill="#473F47"/>
<path d="M91.8872 53.5477C91.748 53.8833 91.5426 54.1874 91.2834 54.4419C90.7562 54.9514 90.0805 55.2797 89.3542 55.3792C88.2955 55.5478 87.2211 55.3792 86.1546 55.2733C86.1306 55.4454 86.0587 55.6074 85.9471 55.7405C85.8354 55.8737 85.6886 55.9727 85.5233 56.0263C85.6844 56.7717 85.8993 57.5044 86.1663 58.2186C86.429 58.9167 86.8055 59.5677 87.0878 60.2501C86.2095 59.6422 85.5193 58.6069 84.892 57.7676C84.5517 57.3688 84.2789 56.917 84.0842 56.4303C83.987 56.1864 83.9494 55.9229 83.9747 55.6616C83.9999 55.4004 84.0872 55.1489 84.2293 54.9282C84.3759 54.7803 84.4954 54.6077 84.5822 54.4184C84.6116 54.2536 84.6116 54.085 84.5822 53.9203C84.5687 53.529 84.6434 53.1396 84.8009 52.7812C84.9584 52.4227 85.1946 52.1043 85.4919 51.8496C86.0931 51.346 86.7991 50.983 87.5583 50.7867C88.2081 50.5582 88.9019 50.483 89.5855 50.5671C90.5736 50.7358 91.7578 51.826 91.9656 52.8104C92.0101 53.0586 91.9829 53.3144 91.8872 53.5477Z" fill="#473F47"/>
<path d="M85.8252 58.3205C85.711 58.3408 85.602 58.3835 85.5044 58.4461C85.4069 58.5086 85.3226 58.59 85.2566 58.6853C85.2202 58.7598 85.199 58.8409 85.1943 58.9237C85.1896 59.0065 85.2014 59.0895 85.2292 59.1677C85.2849 59.3252 85.3686 59.4713 85.4762 59.5991C85.5306 59.677 85.5983 59.7447 85.6762 59.7991C85.8079 59.8728 85.9566 59.9106 86.1075 59.9089C86.2251 59.9089 86.3428 59.9089 86.4604 59.9089C86.5205 59.9053 86.5793 59.8893 86.6329 59.8618C86.6881 59.8203 86.7291 59.7628 86.7506 59.6971C86.8311 59.4512 86.8311 59.1861 86.7506 58.9402C86.6959 58.7084 86.584 58.494 86.4251 58.3166C86.2722 58.1715 86.033 58.2539 85.8252 58.3205Z" fill="#F5FAFE"/>
<path d="M98.9413 68.129C99.168 68.6675 99.5139 69.1475 99.9529 69.533C100.264 69.7649 100.636 69.8996 101.023 69.9199C101.41 69.9402 101.794 69.8454 102.128 69.6473C102.461 69.4492 102.728 69.1567 102.895 68.8069C103.062 68.4571 103.122 68.0656 103.066 67.6819C102.937 67.1171 102.684 66.588 102.325 66.1328C100.788 63.8581 99.2079 61.6096 97.5846 59.3872C97.1533 59.6343 95.624 60.1951 95.5182 60.6853C95.4123 61.1756 96.3337 62.6463 96.5612 63.1482C96.9533 63.9954 97.3454 64.8425 97.7375 65.6818C98.1296 66.521 98.6903 67.2976 98.9413 68.129Z" fill="#4B0673"/>
<path d="M94.5561 59.52L94.0576 59.6859C93.8377 59.7591 93.7188 59.9966 93.7919 60.2165L93.9578 60.7152C94.0309 60.9351 94.2684 61.0541 94.4883 60.9809L94.9868 60.815C95.2067 60.7419 95.3257 60.5043 95.2525 60.2844L95.0867 59.7857C95.0135 59.5658 94.776 59.4469 94.5561 59.52Z" fill="#4B0673"/>
<path d="M54.2171 23.7144L56.06 25.5537" stroke="white" stroke-width="2" stroke-miterlimit="10" stroke-linecap="round"/>
<path d="M56.1699 23.7144L54.3269 25.5537" stroke="white" stroke-width="2" stroke-miterlimit="10" stroke-linecap="round"/>
<path d="M100.682 32.7307H59.7733C59.2363 32.7307 58.8009 33.1662 58.8009 33.7033C58.8009 34.2405 59.2363 34.6759 59.7733 34.6759H100.682C101.219 34.6759 101.655 34.2405 101.655 33.7033C101.655 33.1662 101.219 32.7307 100.682 32.7307Z" fill="white"/>
<path d="M100.682 37.582H59.7733C59.2363 37.582 58.8009 38.0175 58.8009 38.5546C58.8009 39.0918 59.2363 39.5273 59.7733 39.5273H100.682C101.219 39.5273 101.655 39.0918 101.655 38.5546C101.655 38.0175 101.219 37.582 100.682 37.582Z" fill="white"/>
</g>
<defs>
<linearGradient id="paint0_linear_6_695" x1="96.5147" y1="53.9599" x2="118.506" y2="63.3223" gradientUnits="userSpaceOnUse">
<stop offset="0.01"/>
<stop offset="0.08" stop-opacity="0.69"/>
<stop offset="0.21" stop-opacity="0.32"/>
<stop offset="1" stop-opacity="0"/>
</linearGradient>
<linearGradient id="paint1_linear_6_695" x1="768.219" y1="435.841" x2="760.439" y2="509.702" gradientUnits="userSpaceOnUse">
<stop offset="0.01"/>
<stop offset="0.08" stop-opacity="0.69"/>
<stop offset="0.21" stop-opacity="0.32"/>
<stop offset="1" stop-opacity="0"/>
</linearGradient>
<clipPath id="clip0_6_695">
<rect width="133" height="116" fill="white" transform="translate(0 0.724609)"/>
</clipPath>
</defs>
</svg>
