<svg width="141" height="29" viewBox="0 0 141 29" fill="none" xmlns="http://www.w3.org/2000/svg">
<g filter="url(#filter0_i_6_750)">
<path d="M0 7.4693L11.3689 3.83521L23.0823 7.4693L15.8476 23.8227H7.57927L0 7.4693Z" fill="#EC1CA7"/>
</g>
<path d="M9.04384 27.4567L0.0621948 7.64648H5.76287C5.98161 8.18725 6.67198 9.86965 7.83398 12.6937C9.00966 15.5057 9.78889 17.4224 10.1717 18.4439C10.9509 20.4387 11.5114 21.9469 11.8532 22.9683C11.8532 22.9563 11.9694 22.5658 12.2018 21.7967C12.4342 21.0276 12.6529 20.3065 12.858 19.6336C13.0767 18.9486 13.2134 18.534 13.2681 18.3898C13.2818 18.3658 13.9038 16.7074 15.1341 13.4147C16.3782 10.122 17.1164 8.19927 17.3488 7.64648H23.0085L14.4779 27.4567H9.04384Z" fill="white"/>
<path d="M35.4761 24.2482C37.2943 24.2482 38.6614 23.6653 39.5773 22.4997C40.4933 21.334 40.9512 19.6636 40.9512 17.4885C40.9512 15.2894 40.4933 13.613 39.5773 12.4593C38.6614 11.3057 37.2807 10.7289 35.4351 10.7289C33.6169 10.7289 32.243 11.3117 31.3134 12.4774C30.3975 13.631 29.9395 15.3074 29.9395 17.5065C29.9395 19.6696 30.4043 21.334 31.3339 22.4997C32.2635 23.6653 33.6443 24.2482 35.4761 24.2482ZM35.3326 27.8353C31.9969 27.8353 29.3722 26.8859 27.4583 24.9872C25.5444 23.0885 24.5874 20.5889 24.5874 17.4885C24.5874 14.292 25.5444 11.7744 27.4583 9.93575C29.3722 8.08511 32.0721 7.15979 35.5582 7.15979C38.9211 7.15979 41.5528 8.10313 43.453 9.98982C45.3669 11.8645 46.3238 14.3641 46.3238 17.4885C46.3238 20.649 45.36 23.1666 43.4325 25.0413C41.5049 26.9039 38.8049 27.8353 35.3326 27.8353Z" fill="white"/>
<path d="M82.8041 27.8353C79.3591 27.8353 76.6728 26.934 74.7452 25.1314C72.8313 23.3288 71.8744 20.7512 71.8744 17.3984C71.8744 14.1538 72.8792 11.6362 74.8887 9.84562C76.912 8.05506 79.571 7.15979 82.8656 7.15979C85.504 7.15979 87.7324 7.6585 89.5506 8.65592L88.2792 12.0267C86.42 11.1735 84.6906 10.7469 83.0912 10.7469C81.273 10.7469 79.8375 11.3177 78.7849 12.4593C77.7459 13.601 77.2264 15.2653 77.2264 17.4525C77.2264 19.6636 77.7391 21.346 78.7644 22.4997C79.8034 23.6533 81.2661 24.2301 83.1527 24.2301C85.1213 24.2301 87.0146 23.7194 88.8328 22.6979L89.3455 26.2851C88.4022 26.8379 87.4248 27.2344 86.4131 27.4748C85.4015 27.7151 84.1985 27.8353 82.8041 27.8353Z" fill="white"/>
<path d="M103.864 27.8353C100.241 27.8353 97.4181 26.922 95.3948 25.0954C93.3852 23.2567 92.3804 20.7211 92.3804 17.4885C92.3804 14.34 93.3305 11.8345 95.2307 9.9718C97.131 8.10914 99.7216 7.1718 103.003 7.15979C106.106 7.15979 108.512 8.013 110.221 9.71944C111.943 11.4259 112.804 13.6911 112.804 16.5151C112.804 16.7194 112.798 17.0499 112.784 17.5065C112.784 17.9632 112.784 18.2997 112.784 18.516H97.794C97.8487 20.3666 98.4228 21.8027 99.5165 22.8241C100.624 23.8336 102.141 24.3383 104.069 24.3383C106.53 24.3383 108.895 23.7735 111.164 22.6439L111.923 25.9967C109.667 27.2224 106.981 27.8353 103.864 27.8353ZM97.8965 15.5417H107.739C107.739 13.9314 107.322 12.6937 106.489 11.8284C105.655 10.9632 104.499 10.5306 103.023 10.5306C101.642 10.5306 100.473 10.9512 99.5165 11.7924C98.5732 12.6336 98.0332 13.8834 97.8965 15.5417Z" fill="white"/>
<path d="M117.316 27.4567V7.64648H122.688V27.4567H117.316ZM117.316 4.76237V0.724609H122.709V4.76237H117.316Z" fill="white"/>
<path d="M137.309 27.7271C135.778 27.7271 134.5 27.5709 133.475 27.2585C132.463 26.934 131.67 26.4293 131.096 25.7443C130.522 25.0593 130.112 24.2542 129.865 23.3288C129.633 22.3915 129.517 21.2379 129.517 19.8679V10.5126H125.826L126.031 7.95292L129.886 7.64648L131.608 2.27482L134.889 2.25679V7.64648H140.488V10.5126H134.889V19.958C134.889 21.4602 135.136 22.5297 135.628 23.1666C136.12 23.8035 137.029 24.122 138.355 24.122C139.134 24.122 139.968 24.0619 140.857 23.9417L141 27.3306C140.973 27.3306 140.802 27.3606 140.488 27.4207C140.187 27.4688 139.893 27.5108 139.606 27.5469C139.332 27.5949 138.977 27.637 138.54 27.673C138.102 27.7091 137.692 27.7271 137.309 27.7271Z" fill="white"/>
<path d="M58.9116 20.4218C61.1515 20.4218 62.9461 18.8324 62.9461 16.8634L62.9596 9.74662C62.9596 7.77764 61.1515 6.18823 58.9116 6.18823C56.6717 6.18823 54.8636 7.77764 54.8636 9.74662V16.8634C54.8636 18.8324 56.6717 20.4218 58.9116 20.4218ZM66.0631 16.8634C66.0631 20.4218 62.6358 22.9126 58.9116 22.9126C55.1874 22.9126 51.7601 20.4218 51.7601 16.8634H49.4662C49.4662 20.9199 53.1365 24.253 57.5623 24.8342V28.7247H60.261V24.8342C64.6868 24.2648 68.357 20.9199 68.357 16.8634H66.0631Z" fill="#EC1CA7"/>
<defs>
<filter id="filter0_i_6_750" x="0" y="3.83521" width="23.0823" height="23.0173" filterUnits="userSpaceOnUse" color-interpolation-filters="sRGB">
<feFlood flood-opacity="0" result="BackgroundImageFix"/>
<feBlend mode="normal" in="SourceGraphic" in2="BackgroundImageFix" result="shape"/>
<feColorMatrix in="SourceAlpha" type="matrix" values="0 0 0 0 0 0 0 0 0 0 0 0 0 0 0 0 0 0 127 0" result="hardAlpha"/>
<feOffset dy="3.02976"/>
<feGaussianBlur stdDeviation="1.51488"/>
<feComposite in2="hardAlpha" operator="arithmetic" k2="-1" k3="1"/>
<feColorMatrix type="matrix" values="0 0 0 0 0.294118 0 0 0 0 0.0235294 0 0 0 0 0.45098 0 0 0 0.29 0"/>
<feBlend mode="normal" in2="shape" result="effect1_innerShadow_6_750"/>
</filter>
</defs>
</svg>
