<svg width="121" height="24" viewBox="0 0 121 24" fill="none" xmlns="http://www.w3.org/2000/svg">
<g filter="url(#filter0_i_6_10)">
<path d="M0 5.7812L9.74477 2.66626L19.7848 5.7812L13.5836 19.7984H6.49651L0 5.7812Z" fill="#EC1CA7"/>
</g>
<path d="M7.75186 22.9132L0.0533142 5.93303H4.93961C5.12709 6.39655 5.71884 7.8386 6.71484 10.2592C7.72257 12.6695 8.39048 14.3124 8.71858 15.1879C9.38649 16.8978 9.86691 18.1905 10.1599 19.066C10.1599 19.0557 10.2595 18.721 10.4587 18.0617C10.6579 17.4025 10.8453 16.7845 11.0211 16.2077C11.2086 15.6206 11.3258 15.2652 11.3726 15.1416C11.3844 15.121 11.9175 13.6995 12.9721 10.8772C14.0384 8.05491 14.6712 6.40685 14.8704 5.93303H19.7215L12.4097 22.9132H7.75186Z" fill="#4B0673"/>
<path d="M30.4081 20.163C31.9666 20.163 33.1383 19.6635 33.9234 18.6643C34.7085 17.6652 35.101 16.2334 35.101 14.3691C35.101 12.4841 34.7085 11.0472 33.9234 10.0583C33.1383 9.0695 31.9548 8.57508 30.3729 8.57508C28.8145 8.57508 27.6368 9.07465 26.84 10.0738C26.055 11.0626 25.6624 12.4995 25.6624 14.3845C25.6624 16.2386 26.0608 17.6652 26.8576 18.6643C27.6544 19.6635 28.8379 20.163 30.4081 20.163ZM30.2851 23.2377C27.4259 23.2377 25.1761 22.424 23.5356 20.7965C21.8952 19.169 21.0749 17.0266 21.0749 14.3691C21.0749 11.6291 21.8952 9.47121 23.5356 7.89525C25.1761 6.30899 27.4904 5.51586 30.4784 5.51586C33.361 5.51586 35.6166 6.32444 37.2454 7.94161C38.8859 9.54847 39.7061 11.6909 39.7061 14.3691C39.7061 17.0781 38.88 19.236 37.2278 20.8429C35.5756 22.4394 33.2614 23.2377 30.2851 23.2377Z" fill="#4B0673"/>
<path d="M70.9749 23.2377C68.022 23.2377 65.7195 22.4652 64.0673 20.9201C62.4268 19.375 61.6066 17.1656 61.6066 14.2918C61.6066 11.5107 62.4678 9.35276 64.1903 7.818C65.9245 6.28324 68.2036 5.51586 71.0276 5.51586C73.2891 5.51586 75.1991 5.94333 76.7576 6.79826L75.6678 9.68752C74.0742 8.95619 72.5919 8.59053 71.2209 8.59053C69.6625 8.59053 68.4321 9.0798 67.5299 10.0583C66.6393 11.0369 66.194 12.4635 66.194 14.3382C66.194 16.2334 66.6335 17.6755 67.5123 18.6643C68.4028 19.6532 69.6566 20.1476 71.2737 20.1476C72.961 20.1476 74.5839 19.7098 76.1424 18.8343L76.5818 21.9089C75.7733 22.3828 74.9355 22.7227 74.0684 22.9287C73.2012 23.1347 72.1701 23.2377 70.9749 23.2377Z" fill="#4B0673"/>
<path d="M89.026 23.2377C85.9208 23.2377 83.5011 22.4549 81.7669 20.8892C80.0444 19.3132 79.1831 17.1399 79.1831 14.3691C79.1831 11.6703 79.9975 9.52272 81.6263 7.92616C83.2551 6.32959 85.4756 5.52616 88.2878 5.51586C90.9477 5.51586 93.0101 6.24719 94.4748 7.70985C95.9512 9.1725 96.6894 11.1141 96.6894 13.5347C96.6894 13.7098 96.6836 13.9931 96.6719 14.3845C96.6719 14.7759 96.6719 15.0643 96.6719 15.2497H83.8234C83.8702 16.836 84.3624 18.0669 85.2998 18.9424C86.2489 19.8077 87.5496 20.2403 89.2018 20.2403C91.311 20.2403 93.3382 19.7562 95.2833 18.7879L95.9336 21.6617C94.0002 22.7124 91.6977 23.2377 89.026 23.2377ZM83.9112 12.7004H92.348C92.348 11.3201 91.9906 10.2592 91.2758 9.51757C90.5611 8.77594 89.5709 8.40512 88.3054 8.40512C87.1219 8.40512 86.12 8.76564 85.2998 9.48667C84.4913 10.2077 84.0284 11.2789 83.9112 12.7004Z" fill="#4B0673"/>
<path d="M100.556 22.9132V5.93303H105.161V22.9132H100.556ZM100.556 3.46093V0H105.179V3.46093H100.556Z" fill="#4B0673"/>
<path d="M117.693 23.145C116.381 23.145 115.285 23.0111 114.407 22.7433C113.54 22.4652 112.86 22.0325 112.368 21.4454C111.876 20.8583 111.524 20.1682 111.313 19.375C111.114 18.5716 111.014 17.5828 111.014 16.4085V8.38967H107.851L108.026 6.19569L111.331 5.93303L112.807 1.32875L115.619 1.3133V5.93303H120.418V8.38967H115.619V16.4858C115.619 17.7733 115.83 18.6901 116.252 19.236C116.674 19.7819 117.453 20.0549 118.59 20.0549C119.258 20.0549 119.973 20.0034 120.734 19.9004L120.857 22.8051C120.834 22.8051 120.687 22.8308 120.418 22.8823C120.16 22.9235 119.908 22.9596 119.662 22.9905C119.428 23.0317 119.123 23.0677 118.748 23.0986C118.373 23.1295 118.022 23.145 117.693 23.145Z" fill="#4B0673"/>
<path d="M50.4956 16.8833C52.4155 16.8833 53.9538 15.5209 53.9538 13.8332L53.9654 7.73315C53.9654 6.04546 52.4155 4.68311 50.4956 4.68311C48.5757 4.68311 47.0259 6.04546 47.0259 7.73315V13.8332C47.0259 15.5209 48.5757 16.8833 50.4956 16.8833ZM56.6255 13.8332C56.6255 16.8833 53.6878 19.0183 50.4956 19.0183C47.3035 19.0183 44.3658 16.8833 44.3658 13.8332H42.3996C42.3996 17.3103 45.5455 20.1672 49.3391 20.6653V24H51.6522V20.6653C55.4458 20.1773 58.5917 17.3103 58.5917 13.8332H56.6255Z" fill="#EC1CA7"/>
<defs>
<filter id="filter0_i_6_10" x="0" y="2.66626" width="19.7848" height="20.1618" filterUnits="userSpaceOnUse" color-interpolation-filters="sRGB">
<feFlood flood-opacity="0" result="BackgroundImageFix"/>
<feBlend mode="normal" in="SourceGraphic" in2="BackgroundImageFix" result="shape"/>
<feColorMatrix in="SourceAlpha" type="matrix" values="0 0 0 0 0 0 0 0 0 0 0 0 0 0 0 0 0 0 127 0" result="hardAlpha"/>
<feOffset dy="3.02976"/>
<feGaussianBlur stdDeviation="1.51488"/>
<feComposite in2="hardAlpha" operator="arithmetic" k2="-1" k3="1"/>
<feColorMatrix type="matrix" values="0 0 0 0 0.294118 0 0 0 0 0.0235294 0 0 0 0 0.45098 0 0 0 0.29 0"/>
<feBlend mode="normal" in2="shape" result="effect1_innerShadow_6_10"/>
</filter>
</defs>
</svg>
