<svg width="624" height="716" viewBox="0 0 624 716" fill="none" xmlns="http://www.w3.org/2000/svg">
<circle cx="541.015" cy="617.534" r="3.23316" transform="rotate(-90 541.015 617.534)" fill="#4B0673"/>
<circle cx="541.015" cy="498.985" r="3.23316" transform="rotate(-90 541.015 498.985)" fill="#4B0673"/>
<circle cx="541.015" cy="712.373" r="3.23316" transform="rotate(-90 541.015 712.373)" fill="#4B0673"/>
<circle cx="541.015" cy="593.824" r="3.23316" transform="rotate(-90 541.015 593.824)" fill="#4B0673"/>
<circle cx="541.015" cy="475.275" r="3.23316" transform="rotate(-90 541.015 475.275)" fill="#4B0673"/>
<circle cx="541.015" cy="688.663" r="3.23316" transform="rotate(-90 541.015 688.663)" fill="#4B0673"/>
<circle cx="541.015" cy="570.114" r="3.23316" transform="rotate(-90 541.015 570.114)" fill="#4B0673"/>
<circle cx="541.015" cy="451.565" r="3.23316" transform="rotate(-90 541.015 451.565)" fill="#4B0673"/>
<circle cx="541.015" cy="664.954" r="3.23316" transform="rotate(-90 541.015 664.954)" fill="#4B0673"/>
<circle cx="541.015" cy="546.404" r="3.23316" transform="rotate(-90 541.015 546.404)" fill="#4B0673"/>
<circle cx="541.015" cy="427.855" r="3.23316" transform="rotate(-90 541.015 427.855)" fill="#4B0673"/>
<circle cx="541.015" cy="641.244" r="3.23316" transform="rotate(-90 541.015 641.244)" fill="#4B0673"/>
<circle cx="541.015" cy="522.694" r="3.23316" transform="rotate(-90 541.015 522.694)" fill="#4B0673"/>
<circle cx="541.015" cy="404.145" r="3.23316" transform="rotate(-90 541.015 404.145)" fill="#4B0673"/>
<circle cx="588.435" cy="617.534" r="3.23316" transform="rotate(-90 588.435 617.534)" fill="#4B0673"/>
<circle cx="588.435" cy="498.985" r="3.23316" transform="rotate(-90 588.435 498.985)" fill="#4B0673"/>
<circle cx="588.435" cy="712.373" r="3.23316" transform="rotate(-90 588.435 712.373)" fill="#4B0673"/>
<circle cx="588.435" cy="593.824" r="3.23316" transform="rotate(-90 588.435 593.824)" fill="#4B0673"/>
<circle cx="588.435" cy="475.275" r="3.23316" transform="rotate(-90 588.435 475.275)" fill="#4B0673"/>
<circle cx="588.435" cy="688.663" r="3.23316" transform="rotate(-90 588.435 688.663)" fill="#4B0673"/>
<circle cx="588.435" cy="570.114" r="3.23316" transform="rotate(-90 588.435 570.114)" fill="#4B0673"/>
<circle cx="588.435" cy="451.565" r="3.23316" transform="rotate(-90 588.435 451.565)" fill="#4B0673"/>
<circle cx="588.435" cy="664.954" r="3.23316" transform="rotate(-90 588.435 664.954)" fill="#4B0673"/>
<circle cx="588.435" cy="546.404" r="3.23316" transform="rotate(-90 588.435 546.404)" fill="#4B0673"/>
<circle cx="588.435" cy="427.855" r="3.23316" transform="rotate(-90 588.435 427.855)" fill="#4B0673"/>
<circle cx="588.435" cy="641.244" r="3.23316" transform="rotate(-90 588.435 641.244)" fill="#4B0673"/>
<circle cx="588.435" cy="522.694" r="3.23316" transform="rotate(-90 588.435 522.694)" fill="#4B0673"/>
<circle cx="588.435" cy="404.145" r="3.23316" transform="rotate(-90 588.435 404.145)" fill="#4B0673"/>
<circle cx="564.727" cy="617.534" r="3.23316" transform="rotate(-90 564.727 617.534)" fill="#4B0673"/>
<circle cx="564.727" cy="498.985" r="3.23316" transform="rotate(-90 564.727 498.985)" fill="#4B0673"/>
<circle cx="564.726" cy="712.373" r="3.23316" transform="rotate(-90 564.726 712.373)" fill="#4B0673"/>
<circle cx="564.727" cy="593.824" r="3.23316" transform="rotate(-90 564.727 593.824)" fill="#4B0673"/>
<circle cx="564.727" cy="475.275" r="3.23316" transform="rotate(-90 564.727 475.275)" fill="#4B0673"/>
<circle cx="564.727" cy="688.663" r="3.23316" transform="rotate(-90 564.727 688.663)" fill="#4B0673"/>
<circle cx="564.727" cy="570.114" r="3.23316" transform="rotate(-90 564.727 570.114)" fill="#4B0673"/>
<circle cx="564.727" cy="451.565" r="3.23316" transform="rotate(-90 564.727 451.565)" fill="#4B0673"/>
<circle cx="564.727" cy="664.954" r="3.23316" transform="rotate(-90 564.727 664.954)" fill="#4B0673"/>
<circle cx="564.727" cy="546.404" r="3.23316" transform="rotate(-90 564.727 546.404)" fill="#4B0673"/>
<circle cx="564.727" cy="427.855" r="3.23316" transform="rotate(-90 564.727 427.855)" fill="#4B0673"/>
<circle cx="564.727" cy="641.244" r="3.23316" transform="rotate(-90 564.727 641.244)" fill="#4B0673"/>
<circle cx="564.727" cy="522.695" r="3.23316" transform="rotate(-90 564.727 522.695)" fill="#4B0673"/>
<circle cx="564.727" cy="404.145" r="3.23316" transform="rotate(-90 564.727 404.145)" fill="#4B0673"/>
<circle cx="612.146" cy="617.534" r="3.23316" transform="rotate(-90 612.146 617.534)" fill="#4B0673"/>
<circle cx="612.146" cy="498.985" r="3.23316" transform="rotate(-90 612.146 498.985)" fill="#4B0673"/>
<circle cx="612.146" cy="712.373" r="3.23316" transform="rotate(-90 612.146 712.373)" fill="#4B0673"/>
<circle cx="612.146" cy="593.824" r="3.23316" transform="rotate(-90 612.146 593.824)" fill="#4B0673"/>
<circle cx="612.146" cy="475.275" r="3.23316" transform="rotate(-90 612.146 475.275)" fill="#4B0673"/>
<circle cx="612.146" cy="688.663" r="3.23316" transform="rotate(-90 612.146 688.663)" fill="#4B0673"/>
<circle cx="612.146" cy="570.114" r="3.23316" transform="rotate(-90 612.146 570.114)" fill="#4B0673"/>
<circle cx="612.146" cy="451.565" r="3.23316" transform="rotate(-90 612.146 451.565)" fill="#4B0673"/>
<circle cx="612.146" cy="664.954" r="3.23316" transform="rotate(-90 612.146 664.954)" fill="#4B0673"/>
<circle cx="612.146" cy="546.404" r="3.23316" transform="rotate(-90 612.146 546.404)" fill="#4B0673"/>
<circle cx="612.146" cy="427.855" r="3.23316" transform="rotate(-90 612.146 427.855)" fill="#4B0673"/>
<circle cx="612.146" cy="641.244" r="3.23316" transform="rotate(-90 612.146 641.244)" fill="#4B0673"/>
<circle cx="612.146" cy="522.695" r="3.23316" transform="rotate(-90 612.146 522.695)" fill="#4B0673"/>
<circle cx="612.146" cy="404.145" r="3.23316" transform="rotate(-90 612.146 404.145)" fill="#4B0673"/>
<circle cx="446.176" cy="617.534" r="3.23316" transform="rotate(-90 446.176 617.534)" fill="#4B0673"/>
<circle cx="446.176" cy="498.985" r="3.23316" transform="rotate(-90 446.176 498.985)" fill="#4B0673"/>
<circle cx="446.176" cy="712.373" r="3.23316" transform="rotate(-90 446.176 712.373)" fill="#4B0673"/>
<circle cx="446.176" cy="593.824" r="3.23316" transform="rotate(-90 446.176 593.824)" fill="#4B0673"/>
<circle cx="446.176" cy="475.275" r="3.23316" transform="rotate(-90 446.176 475.275)" fill="#4B0673"/>
<circle cx="446.176" cy="688.663" r="3.23316" transform="rotate(-90 446.176 688.663)" fill="#4B0673"/>
<circle cx="446.176" cy="570.114" r="3.23316" transform="rotate(-90 446.176 570.114)" fill="#4B0673"/>
<circle cx="446.176" cy="451.565" r="3.23316" transform="rotate(-90 446.176 451.565)" fill="#4B0673"/>
<circle cx="446.176" cy="664.954" r="3.23316" transform="rotate(-90 446.176 664.954)" fill="#4B0673"/>
<circle cx="446.176" cy="546.404" r="3.23316" transform="rotate(-90 446.176 546.404)" fill="#4B0673"/>
<circle cx="446.176" cy="427.855" r="3.23316" transform="rotate(-90 446.176 427.855)" fill="#4B0673"/>
<circle cx="446.176" cy="641.244" r="3.23316" transform="rotate(-90 446.176 641.244)" fill="#4B0673"/>
<circle cx="446.176" cy="522.695" r="3.23316" transform="rotate(-90 446.176 522.695)" fill="#4B0673"/>
<circle cx="446.176" cy="404.145" r="3.23316" transform="rotate(-90 446.176 404.145)" fill="#4B0673"/>
<circle cx="3.23316" cy="216.622" r="3.23316" transform="rotate(-90 3.23316 216.622)" fill="#4B0673"/>
<circle cx="3.23316" cy="98.0727" r="3.23316" transform="rotate(-90 3.23316 98.0727)" fill="#4B0673"/>
<circle cx="3.23316" cy="311.461" r="3.23316" transform="rotate(-90 3.23316 311.461)" fill="#4B0673"/>
<circle cx="3.23316" cy="192.912" r="3.23316" transform="rotate(-90 3.23316 192.912)" fill="#4B0673"/>
<circle cx="3.23316" cy="74.3629" r="3.23316" transform="rotate(-90 3.23316 74.3629)" fill="#4B0673"/>
<circle cx="3.23316" cy="287.751" r="3.23316" transform="rotate(-90 3.23316 287.751)" fill="#4B0673"/>
<circle cx="3.23316" cy="169.202" r="3.23316" transform="rotate(-90 3.23316 169.202)" fill="#4B0673"/>
<circle cx="3.23316" cy="50.6528" r="3.23316" transform="rotate(-90 3.23316 50.6528)" fill="#4B0673"/>
<circle cx="3.23316" cy="264.042" r="3.23316" transform="rotate(-90 3.23316 264.042)" fill="#4B0673"/>
<circle cx="3.23316" cy="145.492" r="3.23316" transform="rotate(-90 3.23316 145.492)" fill="#4B0673"/>
<circle cx="3.23316" cy="26.9432" r="3.23316" transform="rotate(-90 3.23316 26.9432)" fill="#4B0673"/>
<circle cx="3.23316" cy="240.332" r="3.23316" transform="rotate(-90 3.23316 240.332)" fill="#4B0673"/>
<circle cx="3.23316" cy="121.783" r="3.23316" transform="rotate(-90 3.23316 121.783)" fill="#4B0673"/>
<circle cx="3.23316" cy="3.23327" r="3.23316" transform="rotate(-90 3.23316 3.23327)" fill="#4B0673"/>
<circle cx="493.596" cy="617.534" r="3.23316" transform="rotate(-90 493.596 617.534)" fill="#4B0673"/>
<circle cx="493.596" cy="498.985" r="3.23316" transform="rotate(-90 493.596 498.985)" fill="#4B0673"/>
<circle cx="493.597" cy="712.373" r="3.23316" transform="rotate(-90 493.597 712.373)" fill="#4B0673"/>
<circle cx="493.596" cy="593.824" r="3.23316" transform="rotate(-90 493.596 593.824)" fill="#4B0673"/>
<circle cx="493.596" cy="475.275" r="3.23316" transform="rotate(-90 493.596 475.275)" fill="#4B0673"/>
<circle cx="493.596" cy="688.663" r="3.23316" transform="rotate(-90 493.596 688.663)" fill="#4B0673"/>
<circle cx="493.596" cy="570.114" r="3.23316" transform="rotate(-90 493.596 570.114)" fill="#4B0673"/>
<circle cx="493.596" cy="451.565" r="3.23316" transform="rotate(-90 493.596 451.565)" fill="#4B0673"/>
<circle cx="493.596" cy="664.954" r="3.23316" transform="rotate(-90 493.596 664.954)" fill="#4B0673"/>
<circle cx="493.596" cy="546.404" r="3.23316" transform="rotate(-90 493.596 546.404)" fill="#4B0673"/>
<circle cx="493.596" cy="427.855" r="3.23316" transform="rotate(-90 493.596 427.855)" fill="#4B0673"/>
<circle cx="493.596" cy="641.244" r="3.23316" transform="rotate(-90 493.596 641.244)" fill="#4B0673"/>
<circle cx="493.596" cy="522.695" r="3.23316" transform="rotate(-90 493.596 522.695)" fill="#4B0673"/>
<circle cx="493.596" cy="404.145" r="3.23316" transform="rotate(-90 493.596 404.145)" fill="#4B0673"/>
<circle cx="50.6527" cy="216.622" r="3.23316" transform="rotate(-90 50.6527 216.622)" fill="#4B0673"/>
<circle cx="50.6527" cy="98.0727" r="3.23316" transform="rotate(-90 50.6527 98.0727)" fill="#4B0673"/>
<circle cx="50.6524" cy="311.461" r="3.23316" transform="rotate(-90 50.6524 311.461)" fill="#4B0673"/>
<circle cx="50.6527" cy="192.912" r="3.23316" transform="rotate(-90 50.6527 192.912)" fill="#4B0673"/>
<circle cx="50.6527" cy="74.3629" r="3.23316" transform="rotate(-90 50.6527 74.3629)" fill="#4B0673"/>
<circle cx="50.6527" cy="287.751" r="3.23316" transform="rotate(-90 50.6527 287.751)" fill="#4B0673"/>
<circle cx="50.6527" cy="169.202" r="3.23316" transform="rotate(-90 50.6527 169.202)" fill="#4B0673"/>
<circle cx="50.6527" cy="50.6532" r="3.23316" transform="rotate(-90 50.6527 50.6532)" fill="#4B0673"/>
<circle cx="50.6527" cy="264.042" r="3.23316" transform="rotate(-90 50.6527 264.042)" fill="#4B0673"/>
<circle cx="50.6527" cy="145.492" r="3.23316" transform="rotate(-90 50.6527 145.492)" fill="#4B0673"/>
<circle cx="50.6527" cy="26.9432" r="3.23316" transform="rotate(-90 50.6527 26.9432)" fill="#4B0673"/>
<circle cx="50.6527" cy="240.332" r="3.23316" transform="rotate(-90 50.6527 240.332)" fill="#4B0673"/>
<circle cx="50.6527" cy="121.783" r="3.23316" transform="rotate(-90 50.6527 121.783)" fill="#4B0673"/>
<circle cx="50.6527" cy="3.23327" r="3.23316" transform="rotate(-90 50.6527 3.23327)" fill="#4B0673"/>
<circle cx="469.886" cy="617.534" r="3.23316" transform="rotate(-90 469.886 617.534)" fill="#4B0673"/>
<circle cx="469.886" cy="498.985" r="3.23316" transform="rotate(-90 469.886 498.985)" fill="#4B0673"/>
<circle cx="469.886" cy="712.373" r="3.23316" transform="rotate(-90 469.886 712.373)" fill="#4B0673"/>
<circle cx="469.886" cy="593.824" r="3.23316" transform="rotate(-90 469.886 593.824)" fill="#4B0673"/>
<circle cx="469.886" cy="475.275" r="3.23316" transform="rotate(-90 469.886 475.275)" fill="#4B0673"/>
<circle cx="469.886" cy="688.663" r="3.23316" transform="rotate(-90 469.886 688.663)" fill="#4B0673"/>
<circle cx="469.886" cy="570.114" r="3.23316" transform="rotate(-90 469.886 570.114)" fill="#4B0673"/>
<circle cx="469.886" cy="451.565" r="3.23316" transform="rotate(-90 469.886 451.565)" fill="#4B0673"/>
<circle cx="469.886" cy="664.954" r="3.23316" transform="rotate(-90 469.886 664.954)" fill="#4B0673"/>
<circle cx="469.886" cy="546.404" r="3.23316" transform="rotate(-90 469.886 546.404)" fill="#4B0673"/>
<circle cx="469.886" cy="427.855" r="3.23316" transform="rotate(-90 469.886 427.855)" fill="#4B0673"/>
<circle cx="469.886" cy="641.244" r="3.23316" transform="rotate(-90 469.886 641.244)" fill="#4B0673"/>
<circle cx="469.886" cy="522.694" r="3.23316" transform="rotate(-90 469.886 522.694)" fill="#4B0673"/>
<circle cx="469.886" cy="404.145" r="3.23316" transform="rotate(-90 469.886 404.145)" fill="#4B0673"/>
<circle cx="26.942" cy="216.622" r="3.23316" transform="rotate(-90 26.942 216.622)" fill="#4B0673"/>
<circle cx="26.942" cy="98.0727" r="3.23316" transform="rotate(-90 26.942 98.0727)" fill="#4B0673"/>
<circle cx="26.9421" cy="311.461" r="3.23316" transform="rotate(-90 26.9421 311.461)" fill="#4B0673"/>
<circle cx="26.942" cy="192.912" r="3.23316" transform="rotate(-90 26.942 192.912)" fill="#4B0673"/>
<circle cx="26.942" cy="74.3629" r="3.23316" transform="rotate(-90 26.942 74.3629)" fill="#4B0673"/>
<circle cx="26.942" cy="287.751" r="3.23316" transform="rotate(-90 26.942 287.751)" fill="#4B0673"/>
<circle cx="26.942" cy="169.202" r="3.23316" transform="rotate(-90 26.942 169.202)" fill="#4B0673"/>
<circle cx="26.942" cy="50.6529" r="3.23316" transform="rotate(-90 26.942 50.6529)" fill="#4B0673"/>
<circle cx="26.942" cy="264.042" r="3.23316" transform="rotate(-90 26.942 264.042)" fill="#4B0673"/>
<circle cx="26.942" cy="145.492" r="3.23316" transform="rotate(-90 26.942 145.492)" fill="#4B0673"/>
<circle cx="26.942" cy="26.9432" r="3.23316" transform="rotate(-90 26.942 26.9432)" fill="#4B0673"/>
<circle cx="26.942" cy="240.332" r="3.23316" transform="rotate(-90 26.942 240.332)" fill="#4B0673"/>
<circle cx="26.942" cy="121.783" r="3.23316" transform="rotate(-90 26.942 121.783)" fill="#4B0673"/>
<circle cx="26.942" cy="3.23327" r="3.23316" transform="rotate(-90 26.942 3.23327)" fill="#4B0673"/>
<circle cx="517.306" cy="617.534" r="3.23316" transform="rotate(-90 517.306 617.534)" fill="#4B0673"/>
<circle cx="517.306" cy="498.985" r="3.23316" transform="rotate(-90 517.306 498.985)" fill="#4B0673"/>
<circle cx="517.306" cy="712.373" r="3.23316" transform="rotate(-90 517.306 712.373)" fill="#4B0673"/>
<circle cx="517.306" cy="593.824" r="3.23316" transform="rotate(-90 517.306 593.824)" fill="#4B0673"/>
<circle cx="517.306" cy="475.275" r="3.23316" transform="rotate(-90 517.306 475.275)" fill="#4B0673"/>
<circle cx="517.306" cy="688.663" r="3.23316" transform="rotate(-90 517.306 688.663)" fill="#4B0673"/>
<circle cx="517.306" cy="570.114" r="3.23316" transform="rotate(-90 517.306 570.114)" fill="#4B0673"/>
<circle cx="517.306" cy="451.565" r="3.23316" transform="rotate(-90 517.306 451.565)" fill="#4B0673"/>
<circle cx="517.306" cy="664.954" r="3.23316" transform="rotate(-90 517.306 664.954)" fill="#4B0673"/>
<circle cx="517.306" cy="546.404" r="3.23316" transform="rotate(-90 517.306 546.404)" fill="#4B0673"/>
<circle cx="517.306" cy="427.855" r="3.23316" transform="rotate(-90 517.306 427.855)" fill="#4B0673"/>
<circle cx="517.306" cy="641.244" r="3.23316" transform="rotate(-90 517.306 641.244)" fill="#4B0673"/>
<circle cx="517.306" cy="522.695" r="3.23316" transform="rotate(-90 517.306 522.695)" fill="#4B0673"/>
<circle cx="517.306" cy="404.145" r="3.23316" transform="rotate(-90 517.306 404.145)" fill="#4B0673"/>
<circle cx="74.3626" cy="216.622" r="3.23316" transform="rotate(-90 74.3626 216.622)" fill="#4B0673"/>
<circle cx="74.3626" cy="98.0729" r="3.23316" transform="rotate(-90 74.3626 98.0729)" fill="#4B0673"/>
<circle cx="74.3628" cy="311.461" r="3.23316" transform="rotate(-90 74.3628 311.461)" fill="#4B0673"/>
<circle cx="74.3626" cy="192.912" r="3.23316" transform="rotate(-90 74.3626 192.912)" fill="#4B0673"/>
<circle cx="74.3626" cy="74.3629" r="3.23316" transform="rotate(-90 74.3626 74.3629)" fill="#4B0673"/>
<circle cx="74.3626" cy="287.751" r="3.23316" transform="rotate(-90 74.3626 287.751)" fill="#4B0673"/>
<circle cx="74.3626" cy="169.202" r="3.23316" transform="rotate(-90 74.3626 169.202)" fill="#4B0673"/>
<circle cx="74.3626" cy="50.6529" r="3.23316" transform="rotate(-90 74.3626 50.6529)" fill="#4B0673"/>
<circle cx="74.3626" cy="264.042" r="3.23316" transform="rotate(-90 74.3626 264.042)" fill="#4B0673"/>
<circle cx="74.3626" cy="145.492" r="3.23316" transform="rotate(-90 74.3626 145.492)" fill="#4B0673"/>
<circle cx="74.3626" cy="26.9432" r="3.23316" transform="rotate(-90 74.3626 26.9432)" fill="#4B0673"/>
<circle cx="74.3626" cy="240.332" r="3.23316" transform="rotate(-90 74.3626 240.332)" fill="#4B0673"/>
<circle cx="74.3626" cy="121.783" r="3.23316" transform="rotate(-90 74.3626 121.783)" fill="#4B0673"/>
<circle cx="74.3626" cy="3.23327" r="3.23316" transform="rotate(-90 74.3626 3.23327)" fill="#4B0673"/>
<path d="M312 676.808C484.313 676.808 624 537.121 624 364.808C624 192.495 484.313 52.8082 312 52.8082C139.687 52.8082 0 192.495 0 364.808C0 537.121 139.687 676.808 312 676.808Z" fill="#EC1CA7" fill-opacity="0.12"/>
</svg>
